Coordinates
version=1
nRows=16
nColumns=63
inDegrees=yes

Units are S.I. units (second, meters, Newtons, ...)
If the header above contains a line with 'inDegrees', this indicates whether rotational values are in degrees (yes) or radians (no).

endheader
time	pelvis_tilt	pelvis_list	pelvis_rotation	pelvis_tx	pelvis_ty	pelvis_tz	hip_flexion_r	hip_adduction_r	hip_rotation_r	knee_angle_r	knee_angle_r_beta	ankle_angle_r	subtalar_angle_r	mtp_angle_r	hip_flexion_l	hip_adduction_l	hip_rotation_l	knee_angle_l	knee_angle_l_beta	ankle_angle_l	subtalar_angle_l	mtp_angle_l	L5_S1_Flex_Ext	L5_S1_Lat_Bending	L5_S1_axial_rotation	L4_L5_Flex_Ext	L4_L5_Lat_Bending	L4_L5_axial_rotation	L3_L4_Flex_Ext	L3_L4_Lat_Bending	L3_L4_axial_rotation	L2_L3_Flex_Ext	L2_L3_Lat_Bending	L2_L3_axial_rotation	L1_L2_Flex_Ext	L1_L2_Lat_Bending	L1_L2_axial_rotation	L1_T12_Flex_Ext	L1_T12_Lat_Bending	L1_T12_axial_rotation	Abs_r3	Abs_r2	Abs_r1	Abs_t1	Abs_t2	neck_flexion	neck_bending	neck_rotation	arm_flex_r	arm_add_r	arm_rot_r	elbow_flex_r	pro_sup_r	wrist_flex_r	wrist_dev_r	arm_flex_l	arm_add_l	arm_rot_l	elbow_flex_l	pro_sup_l	wrist_flex_l	wrist_dev_l
1.850000	4.801836	-1.231197	91.955717	0.257158	1.028624	0.341339	2.004214	6.672820	2.357834	12.448690	0.217271	23.162990	-14.636705	0.000000	2.087029	-7.557334	-0.681776	12.970217	0.226373	33.266187	2.410469	0.000000	-0.343761	0.361702	0.293915	-0.638399	0.481064	0.312285	-0.564765	0.879442	0.312285	-0.392884	0.879442	0.257176	-0.319216	0.737583	0.238806	-0.196425	0.560276	0.220436	-2.455451	4.091646	1.634667	0.000000	0.000000	-11.573379	2.079906	7.005068	-12.043656	-11.687537	3.586065	134.749991	71.375947	5.223347	25.599908	68.021765	-7.410144	17.405246	90.563696	88.644829	-3.608024	-5.648508
1.866667	5.299042	-1.322180	90.175074	0.256750	1.027919	0.342903	2.030674	7.087535	3.542286	12.122127	0.211571	23.772642	-13.585583	0.000000	2.283554	-7.959456	-1.168487	13.813395	0.241089	33.860603	0.886171	0.000000	-0.372313	0.502191	0.173613	-0.691423	0.667915	0.184464	-0.611673	1.221028	0.184464	-0.425517	1.221028	0.151911	-0.345730	1.024069	0.141060	-0.212740	0.777894	0.130210	-2.659396	5.680890	0.965583	0.000000	0.000000	-11.314312	2.821051	7.622900	-16.156456	-11.872060	3.932047	135.170957	73.348694	5.349697	24.671438	70.638581	-9.336765	17.687608	85.521624	88.576832	-4.533127	-6.836260
1.883333	5.750850	-1.484811	88.389384	0.256372	1.027070	0.344417	2.151397	7.455070	4.665430	11.847956	0.206786	24.428672	-12.459524	0.000000	2.534858	-8.324658	-1.692415	14.641282	0.255539	34.446641	-0.547761	0.000000	-0.400495	0.640353	0.047239	-0.743759	0.851669	0.050191	-0.657973	1.556954	0.050191	-0.457725	1.556954	0.041334	-0.371899	1.305808	0.038381	-0.228843	0.991907	0.035429	-2.860693	7.243800	0.262728	0.000000	0.000000	-10.944522	3.321818	8.472809	-19.787605	-12.060623	4.304967	135.326283	75.668631	5.351470	23.314117	72.433791	-11.560829	17.770804	81.375261	88.531649	-5.287177	-7.620731
1.900000	6.151628	-1.736627	86.625903	0.256059	1.026091	0.345738	2.358833	7.776674	5.720405	11.605513	0.202554	25.113630	-11.285144	0.000000	2.834524	-8.655295	-2.279868	15.421001	0.269147	35.013426	-1.817793	0.000000	-0.423811	0.775329	-0.069993	-0.787060	1.031187	-0.074368	-0.696280	1.885134	-0.074368	-0.484374	1.885134	-0.061244	-0.393551	1.581050	-0.056870	-0.242166	1.200984	-0.052495	-3.027242	8.770672	-0.389281	0.000000	0.000000	-10.513926	3.613981	9.514229	-22.983837	-12.239508	4.633610	135.374135	78.218950	5.202149	21.669313	73.469686	-13.893901	17.565393	78.257241	88.496232	-5.799732	-7.804810
1.916667	6.466010	-2.070976	84.918055	0.255875	1.024991	0.346778	2.646297	8.020746	6.696619	11.400452	0.198975	25.837872	-10.102598	0.000000	3.177819	-8.921048	-2.975046	16.140793	0.281710	35.560180	-2.842580	0.000000	-0.440742	0.900288	-0.166318	-0.818502	1.197383	-0.176712	-0.724095	2.188960	-0.176712	-0.503724	2.188960	-0.145528	-0.409273	1.835867	-0.135133	-0.251840	1.394546	-0.124738	-3.148174	10.184235	-0.925008	0.000000	0.000000	-10.033985	3.792441	10.661635	-25.737741	-12.423139	4.918029	135.440887	80.782462	4.789115	19.902249	73.850293	-16.158477	16.996418	76.200807	88.451407	-5.836533	-7.311306
1.933333	6.665655	-2.487101	83.314398	0.255833	1.023792	0.347452	3.012459	8.157443	7.510147	11.239393	0.196164	26.609855	-8.881539	0.000000	3.564462	-9.093134	-3.733601	16.781974	0.292901	36.064111	-3.645195	0.000000	-0.448261	1.010032	-0.239593	-0.832466	1.343343	-0.254568	-0.736448	2.455793	-0.254568	-0.512318	2.455793	-0.209644	-0.416255	2.059658	-0.194669	-0.256136	1.564540	-0.179695	-3.201884	11.425689	-1.332544	0.000000	0.000000	-9.533377	3.970151	11.884182	-28.024182	-12.577333	5.030394	135.599547	83.265762	4.540021	18.288156	73.619766	-18.196162	16.010636	75.168574	88.382163	-5.388690	-6.296136
1.950000	6.762267	-2.962265	81.847149	0.255947	1.022540	0.347715	3.424829	8.204599	8.181576	11.110634	0.193917	27.389150	-7.698330	0.000000	3.970784	-9.189508	-4.561702	17.331613	0.302494	36.523848	-4.196027	0.000000	-0.444796	1.103205	-0.282839	-0.826030	1.467263	-0.300517	-0.730755	2.682333	-0.300517	-0.508357	2.682333	-0.247485	-0.413037	2.249656	-0.229807	-0.254156	1.708865	-0.212130	-3.177133	12.479677	-1.573068	0.000000	0.000000	-9.011061	4.134641	12.994166	-29.829134	-12.769681	5.137480	135.857317	85.493109	3.937446	16.708479	72.830473	-19.887841	14.692175	75.051636	88.196551	-4.686840	-4.977575
1.966667	6.764714	-3.465635	80.586050	0.256175	1.021305	0.347562	3.842250	8.175683	8.723217	10.994718	0.191894	28.102321	-6.680265	0.000000	4.377741	-9.220091	-5.415593	17.783554	0.310382	36.910675	-4.485654	0.000000	-0.429219	1.177343	-0.298814	-0.797102	1.565866	-0.317490	-0.705163	2.862591	-0.317490	-0.490554	2.862591	-0.261462	-0.398572	2.400837	-0.242786	-0.245255	1.823704	-0.224111	-3.065865	13.318335	-1.661914	0.000000	0.000000	-8.483672	4.341039	13.864347	-31.134314	-13.012113	5.301904	136.188891	87.326308	2.865288	15.186730	71.530294	-21.139834	13.127912	75.675361	87.920226	-3.873799	-3.684110
1.983333	6.691696	-3.934372	79.591947	0.256468	1.020168	0.347053	4.193866	8.089798	9.123323	10.862082	0.189579	28.692698	-5.885367	0.000000	4.739261	-9.200643	-6.241393	18.136844	0.316548	37.209446	-4.518601	0.000000	-0.405734	1.231221	-0.289145	-0.753489	1.637524	-0.307217	-0.666581	2.993592	-0.307217	-0.463714	2.993592	-0.253002	-0.376765	2.510707	-0.234931	-0.231836	1.907162	-0.216859	-2.898118	13.927822	-1.608140	0.000000	0.000000	-7.971743	4.635049	14.409559	-31.888419	-13.315164	5.520971	136.553157	88.603720	1.462984	13.906764	69.792985	-21.875207	11.426702	76.851080	87.605820	-3.083850	-2.629421
2.000000	6.560477	-4.341216	78.826769	0.256870	1.019198	0.346262	4.464088	7.960484	9.396917	10.735504	0.187370	29.152732	-5.254300	0.000000	5.018623	-9.145499	-7.035665	18.387035	0.320914	37.374598	-4.394422	0.000000	-0.374964	1.263927	-0.242433	-0.696346	1.681023	-0.257585	-0.616029	3.073112	-0.257585	-0.428547	3.073112	-0.212129	-0.348192	2.577400	-0.196977	-0.214255	1.957823	-0.181825	-2.678332	14.297794	-1.348340	0.000000	0.000000	-7.483559	5.048615	14.538585	-32.032969	-13.726975	5.886767	136.839415	89.099649	-0.200499	12.777475	67.696288	-22.072917	9.765161	78.398505	87.262139	-2.681623	-2.015890
2.016667	6.411680	-4.655430	78.380244	0.257260	1.018418	0.345248	4.612706	7.827811	9.565610	10.582921	0.184707	29.416579	-4.930918	0.000000	5.221350	-9.084719	-7.697577	18.560310	0.323939	37.410118	-4.129960	0.000000	-0.339073	1.278147	-0.166342	-0.629693	1.699936	-0.176738	-0.557064	3.107687	-0.176738	-0.387527	3.107687	-0.145549	-0.314864	2.606398	-0.135153	-0.193747	1.979850	-0.124756	-2.421967	14.458658	-0.925144	0.000000	0.000000	-7.007438	5.634020	14.179142	-31.572539	-14.257708	6.349942	137.129326	89.040743	-1.973136	12.144805	65.331848	-21.670104	8.202945	80.144828	86.956070	-2.520232	-1.737599
2.033333	6.260173	-4.847082	78.283229	0.257593	1.017860	0.344063	4.604769	7.702203	9.637842	10.384123	0.181237	29.481216	-4.940365	0.000000	5.328481	-9.024030	-8.191247	18.657413	0.325633	37.328171	-3.731957	0.000000	-0.302979	1.274287	-0.061101	-0.562662	1.694801	-0.064920	-0.497764	3.098301	-0.064920	-0.346275	3.098301	-0.053463	-0.281346	2.598526	-0.049644	-0.173122	1.973870	-0.045826	-2.164149	14.414987	-0.339825	0.000000	0.000000	-6.519898	6.415852	13.244446	-30.576026	-14.869572	6.823467	137.501797	88.622302	-3.615956	12.141974	62.819163	-20.671801	6.854849	81.909838	86.735196	-2.591666	-1.806892
2.050000	6.117556	-4.909092	78.515038	0.257863	1.017555	0.342774	4.437602	7.591479	9.647014	10.138484	0.176950	29.367998	-5.272238	0.000000	5.339386	-8.965430	-8.485954	18.685955	0.326131	37.151160	-3.255019	0.000000	-0.271501	1.254287	0.068594	-0.504204	1.668202	0.072881	-0.446048	3.049673	0.072881	-0.310298	3.049673	0.060020	-0.252115	2.557742	0.055732	-0.155135	1.942891	0.051445	-1.939301	14.188745	0.381498	0.000000	0.000000	-5.997679	7.374499	11.761148	-29.116073	-15.508481	7.253291	138.031932	88.246226	-4.941700	12.649288	60.232621	-19.160139	5.792468	83.606053	86.664704	-2.963561	-2.261140
2.066667	5.997074	-4.868861	79.041564	0.258040	1.017511	0.341437	4.149077	7.502884	9.587558	9.854713	0.171997	29.105155	-5.864431	0.000000	5.283315	-8.914064	-8.578835	18.650247	0.325508	36.913993	-2.728167	0.000000	-0.244753	1.220942	0.215421	-0.454531	1.623853	0.228885	-0.402105	2.968598	0.228885	-0.279728	2.968598	0.188494	-0.227278	2.489745	0.175030	-0.139852	1.891239	0.161566	-1.748246	13.811540	1.198109	0.000000	0.000000	-5.424521	8.502930	9.786706	-27.249371	-16.100649	7.535125	138.750450	88.105295	-5.691506	13.475842	57.585355	-17.240289	5.004239	85.236549	86.879218	-3.459679	-2.916233
2.083333	5.918056	-4.762213	79.834943	0.258067	1.017720	0.340101	3.780722	7.451689	9.447861	9.530902	0.166346	28.714389	-6.655758	0.000000	5.205532	-8.883605	-8.465903	18.565477	0.324029	36.662076	-2.176526	0.000000	-0.221801	1.179400	0.351487	-0.411906	1.568603	0.373455	-0.364396	2.867594	0.373455	-0.253496	2.867594	0.307551	-0.205964	2.405033	0.285583	-0.126737	1.826891	0.263615	-1.584299	13.341614	1.954864	0.000000	0.000000	-4.813128	9.752942	7.559266	-24.872445	-16.635513	7.772786	139.550015	88.183313	-5.865848	14.247893	54.815175	-15.113183	4.449251	86.931632	87.191107	-4.016161	-3.372584
2.100000	5.887378	-4.590053	80.812710	0.257912	1.018199	0.338806	3.340186	7.440352	9.246181	9.178376	0.160193	28.231155	-7.558731	0.000000	5.087881	-8.874118	-8.159581	18.421493	0.321516	36.418510	-1.659398	0.000000	-0.207800	1.134822	0.466123	-0.385905	1.509313	0.495256	-0.341394	2.759205	0.495256	-0.237494	2.759205	0.407858	-0.192963	2.314128	0.378725	-0.118737	1.757839	0.349593	-1.484293	12.837329	2.592439	0.000000	0.000000	-4.149187	10.899777	5.182220	-21.857350	-17.080037	8.040206	140.327721	88.323392	-5.510594	14.813846	51.866890	-12.913020	4.082078	88.780622	87.651696	-4.617419	-3.267473
